<svg width="37" height="36" viewBox="0 0 37 36" fill="none" xmlns="http://www.w3.org/2000/svg">
<path d="M1 1H4.43971C5.97523 1 6.74299 1 7.321 1.4004C7.89902 1.80079 8.1418 2.50081 8.62738 3.90082L9.82837 7.36359" stroke="white" stroke-linecap="round"/>
<path d="M31.8996 28.5758H11.0446C10.7219 28.5758 10.5606 28.5758 10.4382 28.5626C9.14134 28.423 8.25294 27.2383 8.52529 26.0119C8.55098 25.896 8.60201 25.749 8.70404 25.4548C8.81733 25.1282 8.87397 24.9648 8.93656 24.8208C9.57724 23.3453 11.0266 22.3411 12.6857 22.2236C12.8478 22.2122 13.0269 22.2122 13.3851 22.2122H25.2783" stroke="white" stroke-linecap="round" stroke-linejoin="round"/>
<path d="M24.5694 22.2119H17.8574C15.034 22.2119 13.6223 22.2119 12.5167 21.5113C11.4111 20.8106 10.855 19.5636 9.7428 17.0695L9.3702 16.2339C7.58358 12.2273 6.69026 10.224 7.67156 8.79376C8.65283 7.36353 10.9206 7.36353 15.4561 7.36353H27.1115C32.1856 7.36353 34.7227 7.36353 35.6797 8.94829C36.6367 10.5331 35.3777 12.6502 32.8603 16.8843L32.2346 17.9368C30.9942 20.0226 30.3743 21.0656 29.3466 21.6388C28.319 22.2119 27.0691 22.2119 24.5694 22.2119Z" stroke="white" stroke-linecap="round"/>
<path d="M32.5035 33.8788C32.5035 34.7556 31.7581 35.5 30.7964 35.5C29.8348 35.5 29.0894 34.7556 29.0894 33.8788C29.0894 33.0019 29.8348 32.2576 30.7964 32.2576C31.7581 32.2576 32.5035 33.0019 32.5035 33.8788Z" fill="white" stroke="white"/>
<path d="M14.8463 33.8788C14.8463 34.7556 14.1009 35.5 13.1392 35.5C12.1775 35.5 11.4321 34.7556 11.4321 33.8788C11.4321 33.0019 12.1775 32.2576 13.1392 32.2576C14.1009 32.2576 14.8463 33.0019 14.8463 33.8788Z" fill="white" stroke="white"/>
</svg>
